
<svg version="1.1" id="Layer_1" xmlns="http://www.w3.org/2000/svg" xmlns:xlink="http://www.w3.org/1999/xlink" x="0px" y="0px"
	 width="100%" viewBox="0 0 796 732" enable-background="new 0 0 796 732" xml:space="preserve">
<path fill="#F7F7F7" opacity="1.000000" stroke="none" 
	d="
M525.000000,733.000000 
	C350.000000,733.000000 175.500000,733.000000 1.000000,733.000000 
	C1.000000,489.000000 1.000000,245.000000 1.000000,1.000000 
	C266.333344,1.000000 531.666687,1.000000 797.000000,1.000000 
	C797.000000,245.000000 797.000000,489.000000 797.000000,733.000000 
	C706.500000,733.000000 616.000000,733.000000 525.000000,733.000000 
M191.775681,305.281433 
	C192.774780,305.290131 193.773880,305.306061 194.772980,305.306427 
	C204.450882,305.310211 205.936981,303.800781 205.940735,293.945618 
	C205.944580,283.787231 205.941605,273.628815 205.941574,263.470428 
	C205.941528,248.431198 205.047760,247.569336 189.157898,248.044968 
	C186.163895,248.028458 183.169540,247.974930 180.175964,248.003311 
	C174.327011,248.058762 171.294296,250.489334 171.194794,256.277252 
	C170.957535,270.079926 170.982056,283.891907 171.210815,297.694977 
	C171.279190,301.820831 173.593399,305.335632 177.989365,305.739746 
	C182.216064,306.128326 186.543793,305.417725 191.775681,305.281433 
M256.964996,305.656677 
	C269.538055,306.003784 270.997955,304.573761 270.997986,291.910950 
	C270.997986,270.914398 270.997986,249.917847 270.997986,228.921295 
	C270.997986,213.954285 270.224121,213.231964 254.345856,213.507401 
	C252.694153,213.384995 251.043060,213.166275 249.390656,213.155823 
	C238.516663,213.087006 236.171188,215.419434 236.168381,226.226257 
	C236.164902,239.724167 236.167206,253.222092 236.167603,266.720001 
	C236.167877,276.385193 236.080353,286.051453 236.201309,295.715149 
	C236.281128,302.094147 238.965332,305.589569 244.172043,305.860291 
	C248.133820,306.066284 252.130142,305.608124 256.964996,305.656677 
M398.233948,294.019196 
	C377.445984,296.982086 365.746582,319.316589 374.984497,338.096985 
	C379.416626,347.107391 387.035614,351.836609 395.272705,355.089844 
	C393.041534,355.634186 390.813690,356.192444 388.578674,356.720581 
	C377.375488,359.367767 368.768097,366.130157 360.018524,374.048004 
	C327.475525,374.048004 294.932556,374.048004 261.967255,374.048004 
	C261.967255,371.459991 261.967316,369.655914 261.967224,367.851837 
	C261.966766,356.202759 261.943634,344.553589 261.977966,332.904602 
	C261.990173,328.764160 260.576782,325.696228 256.141937,324.939056 
	C251.059448,324.071289 248.031067,327.013550 248.008484,332.945068 
	C247.950790,348.088654 247.976471,363.232635 247.990662,378.376434 
	C247.997910,386.114563 249.911667,388.008209 257.740509,388.011993 
	C289.192993,388.027130 320.645508,388.026581 352.095734,388.822845 
	C346.815338,404.122864 348.193817,419.998627 348.290619,435.716339 
	C348.338623,443.509705 352.528351,446.947876 360.438110,446.944702 
	C388.387543,446.933502 416.336975,446.908875 444.286377,446.860046 
	C453.073608,446.844696 456.833862,443.162720 456.825134,434.455872 
	C456.809540,418.881195 457.935028,403.201538 453.879364,388.024048 
	C485.189423,388.021515 516.499512,388.028870 547.809570,388.008270 
	C554.293640,388.003998 556.826904,385.472443 556.911011,378.983215 
	C556.965027,374.820312 556.923279,370.656189 556.922607,366.492615 
	C556.920715,355.001160 557.001648,343.508759 556.872986,332.018738 
	C556.823486,327.597687 553.621094,324.439758 549.792419,324.475891 
	C545.887390,324.512756 543.043091,327.591400 542.960083,332.101929 
	C542.868164,337.096558 542.933350,342.094116 542.932739,347.090393 
	C542.931580,355.868347 542.932434,364.646301 542.932434,374.122314 
	C509.576996,374.122314 476.821808,374.122314 443.480164,373.777283 
	C436.951385,368.990051 430.749878,363.634216 423.775848,359.620667 
	C419.314880,357.053345 413.712646,356.469025 409.228973,354.498566 
	C417.074371,352.434082 423.675934,348.462494 428.101349,341.524445 
	C434.768921,331.071198 435.358490,320.010864 429.252136,309.344025 
	C422.706696,297.910278 412.321442,292.818726 398.233948,294.019196 
M321.948242,305.654724 
	C334.533051,306.007141 336.041138,304.550690 336.041199,292.040894 
	C336.041443,258.969849 336.041534,225.898834 336.041138,192.827805 
	C336.041016,180.162933 334.612427,178.768188 322.051086,179.173782 
	C321.720551,179.184464 321.391907,179.254272 320.140625,179.106323 
	C316.816254,179.071671 313.491089,178.975647 310.167664,179.016403 
	C304.871918,179.081375 301.938507,181.660614 301.929016,186.799469 
	C301.860535,223.877533 301.868835,260.955811 301.931335,298.033936 
	C301.939087,302.642548 304.711914,305.658234 309.191010,305.855133 
	C313.148193,306.029175 317.131866,305.601074 321.948242,305.654724 
M243.753448,489.116211 
	C243.734421,486.450562 243.772507,483.783020 243.684372,481.119659 
	C243.507233,475.767792 241.357208,473.374512 236.099319,473.292328 
	C226.603958,473.143890 217.102280,473.126099 207.607803,473.301575 
	C202.248886,473.400574 200.146866,475.739014 200.142273,481.122375 
	C200.112488,516.114014 200.110596,551.105591 200.144806,586.097229 
	C200.150192,591.607422 202.212784,593.784973 207.591858,593.846008 
	C217.088364,593.953796 226.587540,593.939270 236.084442,593.850891 
	C241.163208,593.803589 243.373459,591.595581 243.676071,586.579407 
	C243.866180,583.428101 243.945023,580.270203 244.985504,577.094604 
	C249.650177,576.705627 254.314865,576.316650 259.892578,575.998474 
	C263.043518,575.775513 266.191650,575.496155 269.345886,575.340393 
	C278.314178,574.897522 287.386139,573.445862 296.235718,574.291504 
	C322.780212,576.828003 349.346405,577.875671 375.965210,577.060364 
	C398.743134,576.362671 421.522522,575.343689 444.261292,573.856323 
	C461.789581,572.709717 479.026489,569.534241 494.346649,560.215210 
	C510.129913,550.614441 525.703186,540.663879 541.260010,530.697083 
	C551.763550,523.967773 562.079285,516.945374 573.108337,509.986450 
	C578.687866,506.488434 584.443054,503.238037 589.805176,499.433594 
	C597.582581,493.915558 599.318970,484.287231 594.060242,476.233429 
	C588.018127,467.936676 579.602234,465.722260 570.947815,470.232788 
	C536.428894,488.223541 501.931335,506.255341 467.383331,524.190063 
	C465.386261,525.226807 463.015228,526.093506 460.813995,526.103394 
	C432.677948,526.230652 404.541046,526.219177 376.404846,526.113525 
	C374.549591,526.106567 372.450928,525.426636 370.895752,524.404907 
	C367.477142,522.158813 367.080536,518.489258 368.277191,515.035889 
	C369.612061,511.183655 372.813416,509.747681 376.967255,509.762360 
	C402.273254,509.851715 427.579803,509.774078 452.886017,509.824646 
	C458.784729,509.836426 463.524292,507.712769 467.701263,502.711121 
	C473.210907,496.591766 473.675842,491.074738 467.868652,485.817474 
	C464.763367,483.006256 460.255737,480.726532 456.148773,480.262573 
	C448.808472,479.433319 441.292419,480.160065 432.934723,480.169281 
	C416.606201,480.156128 400.275208,480.289398 383.950989,480.018036 
	C380.268433,479.956787 376.351074,479.064636 372.984039,477.563232 
	C358.125366,470.937683 342.853363,465.818481 326.497101,465.247528 
	C305.564148,464.516846 287.361084,472.053802 271.563293,485.392212 
	C267.708740,488.646759 263.860870,490.392944 258.039093,490.023010 
	C253.337708,490.023560 248.636322,490.024109 243.753448,489.116211 
M544.332214,168.198273 
	C540.583862,168.803604 536.777405,169.167114 533.096375,170.052414 
	C503.043304,177.280380 481.111359,205.340683 480.947968,236.213928 
	C480.853882,253.990173 486.629944,269.606567 498.388458,282.632416 
	C510.476318,296.023132 525.446228,304.426178 544.803162,305.218353 
	C546.615295,305.380402 548.432007,305.723083 550.238953,305.678070 
	C592.065491,304.636139 621.573730,269.418732 618.097168,231.113113 
	C614.687622,193.546127 582.003845,165.356140 544.332214,168.198273 
z"/>
<path fill="#DAB67A" opacity="1.000000" stroke="none" 
	d="
M258.962708,490.120575 
	C263.860870,490.392944 267.708740,488.646759 271.563293,485.392212 
	C287.361084,472.053802 305.564148,464.516846 326.497101,465.247528 
	C342.853363,465.818481 358.125366,470.937683 372.984039,477.563232 
	C376.351074,479.064636 380.268433,479.956787 383.950989,480.018036 
	C400.275208,480.289398 416.606201,480.156128 433.438232,480.622620 
	C433.961731,481.903442 433.984589,482.730896 434.001343,483.558441 
	C434.245544,495.601898 441.699615,502.978790 453.669098,503.006592 
	C458.139984,503.016968 462.610901,502.999420 467.081818,502.994629 
	C463.524292,507.712769 458.784729,509.836426 452.886017,509.824646 
	C427.579803,509.774078 402.273254,509.851715 376.967255,509.762360 
	C372.813416,509.747681 369.612061,511.183655 368.277191,515.035889 
	C367.080536,518.489258 367.477142,522.158813 370.895752,524.404907 
	C372.450928,525.426636 374.549591,526.106567 376.404846,526.113525 
	C404.541046,526.219177 432.677948,526.230652 460.813995,526.103394 
	C463.015228,526.093506 465.386261,525.226807 467.383331,524.190063 
	C501.931335,506.255341 536.428894,488.223541 570.947815,470.232788 
	C579.602234,465.722260 588.018127,467.936676 593.867371,476.830292 
	C586.691956,480.574524 579.347839,483.120178 572.828064,487.037781 
	C566.246033,490.992798 564.738464,500.806671 568.798218,507.367371 
	C569.538696,508.563965 571.227844,509.173523 572.479065,510.054077 
	C562.079285,516.945374 551.763550,523.967773 541.260010,530.697083 
	C525.703186,540.663879 510.129913,550.614441 494.346649,560.215210 
	C479.026489,569.534241 461.789581,572.709717 444.261292,573.856323 
	C421.522522,575.343689 398.743134,576.362671 375.965210,577.060364 
	C349.346405,577.875671 322.780212,576.828003 296.235718,574.291504 
	C287.386139,573.445862 278.314178,574.897522 269.345886,575.340393 
	C266.191650,575.496155 263.043518,575.775513 259.455963,575.500427 
	C259.000458,546.708435 258.981567,518.414490 258.962708,490.120575 
z"/>
<path fill="#F1E288" opacity="1.000000" stroke="none" 
	d="
M544.039429,304.962494 
	C525.446228,304.426178 510.476318,296.023132 498.388458,282.632416 
	C486.629944,269.606567 480.853882,253.990173 480.947968,236.213928 
	C481.111359,205.340683 503.043304,177.280380 533.096375,170.052414 
	C536.777405,169.167114 540.583862,168.803604 544.830322,168.620697 
	C545.554443,169.272858 545.749939,169.659378 546.010742,169.710114 
	C581.912903,176.694183 607.270630,211.272125 599.964661,249.646469 
	C596.487549,267.909424 587.007568,282.380249 571.756470,293.263885 
	C563.301880,299.297363 553.689758,302.047211 544.039429,304.962494 
M542.978455,191.814621 
	C543.409180,195.202179 542.222107,196.973190 538.743530,198.401230 
	C523.372437,204.711349 519.700867,224.022110 531.174927,235.901855 
	C536.372192,241.282867 542.722290,243.436066 549.904175,244.000565 
	C556.752319,244.538834 560.561523,247.500168 561.086548,252.540115 
	C561.839478,259.767242 555.245422,265.375244 547.259399,263.751038 
	C543.087769,262.902588 539.062256,261.127960 535.116028,259.433533 
	C530.710449,257.541901 527.299866,258.128662 525.156677,261.633942 
	C522.985107,265.185577 523.839355,268.780487 528.071045,271.334503 
	C531.318787,273.294647 534.860168,274.913239 538.464294,276.092804 
	C541.450012,277.069946 543.371948,277.926178 543.087830,281.714111 
	C542.795532,285.610992 545.216675,287.798676 549.194397,288.071869 
	C553.380798,288.359406 556.620483,286.140167 556.615417,282.379730 
	C556.609009,277.603363 559.265198,276.355225 562.641052,274.602783 
	C578.737549,266.247070 580.023438,244.069611 564.581055,234.613953 
	C559.585632,231.555222 553.082947,230.906189 547.223938,229.324585 
	C541.418518,227.757462 537.811646,223.758087 538.242126,219.025253 
	C538.680115,214.209869 543.565369,209.601593 549.220459,210.174393 
	C554.367493,210.695724 559.472778,212.503891 564.371643,214.343567 
	C568.813538,216.011673 572.459839,215.602127 574.332214,212.238098 
	C576.344177,208.623230 575.123108,204.383987 570.981506,202.102676 
	C567.648376,200.266663 564.124146,198.667099 560.513733,197.484589 
	C558.181213,196.720657 556.750854,196.088806 556.885254,193.248917 
	C557.085327,189.023407 554.911621,186.118713 550.689453,185.512131 
	C546.654968,184.932510 544.169006,187.203461 542.978455,191.814621 
z"/>
<path fill="#8FB4F7" opacity="1.000000" stroke="none" 
	d="
M360.942383,374.134949 
	C368.768097,366.130157 377.375488,359.367767 388.578674,356.720581 
	C390.813690,356.192444 393.041534,355.634186 396.008484,355.033020 
	C397.202789,354.932800 397.661377,354.889404 398.560242,354.899292 
	C402.207733,354.966980 405.414886,354.981354 408.622040,354.995758 
	C413.712646,356.469025 419.314880,357.053345 423.775848,359.620667 
	C430.749878,363.634216 436.951385,368.990051 443.916992,374.242096 
	C447.211578,379.152252 450.069305,383.597595 452.927002,388.042938 
	C457.935028,403.201538 456.809540,418.881195 456.825134,434.455872 
	C456.833862,443.162720 453.073608,446.844696 444.286377,446.860046 
	C416.336975,446.908875 388.387543,446.933502 360.438110,446.944702 
	C352.528351,446.947876 348.338623,443.509705 348.290619,435.716339 
	C348.193817,419.998627 346.815338,404.122864 352.353699,388.211548 
	C355.388580,383.111786 358.165497,378.623383 360.942383,374.134949 
z"/>
<path fill="#D48087" opacity="1.000000" stroke="none" 
	d="
M244.073761,577.115234 
	C243.945023,580.270203 243.866180,583.428101 243.676071,586.579407 
	C243.373459,591.595581 241.163208,593.803589 236.084442,593.850891 
	C226.587540,593.939270 217.088364,593.953796 207.591858,593.846008 
	C202.212784,593.784973 200.150192,591.607422 200.144806,586.097229 
	C200.110596,551.105591 200.112488,516.114014 200.142273,481.122375 
	C200.146866,475.739014 202.248886,473.400574 207.607803,473.301575 
	C217.102280,473.126099 226.603958,473.143890 236.099319,473.292328 
	C241.357208,473.374512 243.507233,475.767792 243.684372,481.119659 
	C243.772507,483.783020 243.734421,486.450562 243.574036,489.881104 
	C243.282745,491.127777 243.073364,491.609497 243.072937,492.091370 
	C243.049667,519.203430 243.030228,546.315491 243.080246,573.427490 
	C243.082520,574.657349 243.727921,575.885986 244.073761,577.115234 
z"/>
<path fill="#84C8BB" opacity="1.000000" stroke="none" 
	d="
M321.103821,305.438843 
	C317.131866,305.601074 313.148193,306.029175 309.191010,305.855133 
	C304.711914,305.658234 301.939087,302.642548 301.931335,298.033936 
	C301.868835,260.955811 301.860535,223.877533 301.929016,186.799469 
	C301.938507,181.660614 304.871918,179.081375 310.167664,179.016403 
	C313.491089,178.975647 316.816254,179.071671 320.648315,179.543686 
	C322.105255,183.401382 323.858795,186.816895 323.879395,190.242813 
	C324.084625,224.388779 324.104980,258.537140 323.875916,292.682800 
	C323.847351,296.940826 322.070557,301.187103 321.103821,305.438843 
z"/>
<path fill="#E7C456" opacity="1.000000" stroke="none" 
	d="
M544.421265,305.090424 
	C553.689758,302.047211 563.301880,299.297363 571.756470,293.263885 
	C587.007568,282.380249 596.487549,267.909424 599.964661,249.646469 
	C607.270630,211.272125 581.912903,176.694183 546.010742,169.710114 
	C545.749939,169.659378 545.554443,169.272858 545.246155,168.717834 
	C582.003845,165.356140 614.687622,193.546127 618.097168,231.113113 
	C621.573730,269.418732 592.065491,304.636139 550.238953,305.678070 
	C548.432007,305.723083 546.615295,305.380402 544.421265,305.090424 
z"/>
<path fill="#85C8BC" opacity="1.000000" stroke="none" 
	d="
M453.403198,388.033508 
	C450.069305,383.597595 447.211578,379.152252 444.210266,374.414612 
	C476.821808,374.122314 509.576996,374.122314 542.932434,374.122314 
	C542.932434,364.646301 542.931580,355.868347 542.932739,347.090393 
	C542.933350,342.094116 542.868164,337.096558 542.960083,332.101929 
	C543.043091,327.591400 545.887390,324.512756 549.792419,324.475891 
	C553.621094,324.439758 556.823486,327.597687 556.872986,332.018738 
	C557.001648,343.508759 556.920715,355.001160 556.922607,366.492615 
	C556.923279,370.656189 556.965027,374.820312 556.911011,378.983215 
	C556.826904,385.472443 554.293640,388.003998 547.809570,388.008270 
	C516.499512,388.028870 485.189423,388.021515 453.403198,388.033508 
z"/>
<path fill="#85C8BB" opacity="1.000000" stroke="none" 
	d="
M360.480469,374.091492 
	C358.165497,378.623383 355.388580,383.111786 352.354858,387.816010 
	C320.645508,388.026581 289.192993,388.027130 257.740509,388.011993 
	C249.911667,388.008209 247.997910,386.114563 247.990662,378.376434 
	C247.976471,363.232635 247.950790,348.088654 248.008484,332.945068 
	C248.031067,327.013550 251.059448,324.071289 256.141937,324.939056 
	C260.576782,325.696228 261.990173,328.764160 261.977966,332.904602 
	C261.943634,344.553589 261.966766,356.202759 261.967224,367.851837 
	C261.967316,369.655914 261.967255,371.459991 261.967255,374.048004 
	C294.932556,374.048004 327.475525,374.048004 360.480469,374.091492 
z"/>
<path fill="#CAB6AA" opacity="1.000000" stroke="none" 
	d="
M398.119934,354.846008 
	C397.661377,354.889404 397.202789,354.932800 396.399475,354.969666 
	C387.035614,351.836609 379.416626,347.107391 374.984497,338.096985 
	C365.746582,319.316589 377.445984,296.982086 398.680664,294.394348 
	C400.447937,295.691895 401.706482,296.722595 403.098816,297.519531 
	C414.600342,304.102417 419.996918,314.110870 418.912201,327.189545 
	C417.950256,338.788208 411.859253,347.161682 401.196991,352.132507 
	C400.008057,352.686798 399.137909,353.924988 398.119934,354.846008 
z"/>
<path fill="#87C9BC" opacity="1.000000" stroke="none" 
	d="
M256.111084,305.445496 
	C252.130142,305.608124 248.133820,306.066284 244.172043,305.860291 
	C238.965332,305.589569 236.281128,302.094147 236.201309,295.715149 
	C236.080353,286.051453 236.167877,276.385193 236.167603,266.720001 
	C236.167206,253.222092 236.164902,239.724167 236.168381,226.226257 
	C236.171188,215.419434 238.516663,213.087006 249.390656,213.155823 
	C251.043060,213.166275 252.694153,213.384995 254.883789,214.032471 
	C256.613647,217.277267 258.807800,219.985153 258.840057,222.718536 
	C259.115021,246.037811 259.140594,269.363403 258.867462,292.682709 
	C258.817505,296.947144 257.073242,301.191742 256.111084,305.445496 
z"/>
<path fill="#73AFA2" opacity="1.000000" stroke="none" 
	d="
M321.526031,305.546783 
	C322.070557,301.187103 323.847351,296.940826 323.875916,292.682800 
	C324.104980,258.537140 324.084625,224.388779 323.879395,190.242813 
	C323.858795,186.816895 322.105255,183.401382 321.109192,179.638794 
	C321.391907,179.254272 321.720551,179.184464 322.051086,179.173782 
	C334.612427,178.768188 336.041016,180.162933 336.041138,192.827805 
	C336.041534,225.898834 336.041443,258.969849 336.041199,292.040894 
	C336.041138,304.550690 334.533051,306.007141 321.526031,305.546783 
z"/>
<path fill="#B99156" opacity="1.000000" stroke="none" 
	d="
M244.529633,577.104919 
	C243.727921,575.885986 243.082520,574.657349 243.080246,573.427490 
	C243.030228,546.315491 243.049667,519.203430 243.072937,492.091370 
	C243.073364,491.609497 243.282745,491.127777 243.664780,490.335327 
	C248.636322,490.024109 253.337708,490.023560 258.500885,490.071777 
	C258.981567,518.414490 259.000458,546.708435 258.999451,575.465027 
	C254.314865,576.316650 249.650177,576.705627 244.529633,577.104919 
z"/>
<path fill="#86C8BC" opacity="1.000000" stroke="none" 
	d="
M190.827148,305.190125 
	C186.543793,305.417725 182.216064,306.128326 177.989365,305.739746 
	C173.593399,305.335632 171.279190,301.820831 171.210815,297.694977 
	C170.982056,283.891907 170.957535,270.079926 171.194794,256.277252 
	C171.294296,250.489334 174.327011,248.058762 180.175964,248.003311 
	C183.169540,247.974930 186.163895,248.028458 189.784912,248.406433 
	C191.606659,251.892868 193.728806,254.987488 193.832230,258.148193 
	C194.234604,270.443359 194.220047,282.766266 193.850998,295.063538 
	C193.748886,298.466278 191.883530,301.816071 190.827148,305.190125 
z"/>
<path fill="#73AFA2" opacity="1.000000" stroke="none" 
	d="
M256.538025,305.551086 
	C257.073242,301.191742 258.817505,296.947144 258.867462,292.682709 
	C259.140594,269.363403 259.115021,246.037811 258.840057,222.718536 
	C258.807800,219.985153 256.613647,217.277267 255.210968,214.273529 
	C270.224121,213.231964 270.997986,213.954285 270.997986,228.921295 
	C270.997986,249.917847 270.997986,270.914398 270.997986,291.910950 
	C270.997955,304.573761 269.538055,306.003784 256.538025,305.551086 
z"/>
<path fill="#BAA191" opacity="1.000000" stroke="none" 
	d="
M398.560242,354.899292 
	C399.137909,353.924988 400.008057,352.686798 401.196991,352.132507 
	C411.859253,347.161682 417.950256,338.788208 418.912201,327.189545 
	C419.996918,314.110870 414.600342,304.102417 403.098816,297.519531 
	C401.706482,296.722595 400.447937,295.691895 399.083099,294.434113 
	C412.321442,292.818726 422.706696,297.910278 429.252136,309.344025 
	C435.358490,320.010864 434.768921,331.071198 428.101349,341.524445 
	C423.675934,348.462494 417.074371,352.434082 408.925507,354.747162 
	C405.414886,354.981354 402.207733,354.966980 398.560242,354.899292 
z"/>
<path fill="#ECD6AE" opacity="1.000000" stroke="none" 
	d="
M467.391541,502.852875 
	C462.610901,502.999420 458.139984,503.016968 453.669098,503.006592 
	C441.699615,502.978790 434.245544,495.601898 434.001343,483.558441 
	C433.984589,482.730896 433.961731,481.903442 433.895782,480.656128 
	C441.292419,480.160065 448.808472,479.433319 456.148773,480.262573 
	C460.255737,480.726532 464.763367,483.006256 467.868652,485.817474 
	C473.675842,491.074738 473.210907,496.591766 467.391541,502.852875 
z"/>
<path fill="#75B0A3" opacity="1.000000" stroke="none" 
	d="
M191.301422,305.235779 
	C191.883530,301.816071 193.748886,298.466278 193.850998,295.063538 
	C194.220047,282.766266 194.234604,270.443359 193.832230,258.148193 
	C193.728806,254.987488 191.606659,251.892868 190.250595,248.475815 
	C205.047760,247.569336 205.941528,248.431198 205.941574,263.470428 
	C205.941605,273.628815 205.944580,283.787231 205.940735,293.945618 
	C205.936981,303.800781 204.450882,305.310211 194.772980,305.306427 
	C193.773880,305.306061 192.774780,305.290131 191.301422,305.235779 
z"/>
<path fill="#ECD6AE" opacity="1.000000" stroke="none" 
	d="
M572.793701,510.020264 
	C571.227844,509.173523 569.538696,508.563965 568.798218,507.367371 
	C564.738464,500.806671 566.246033,490.992798 572.828064,487.037781 
	C579.347839,483.120178 586.691956,480.574524 593.980225,477.158661 
	C599.318970,484.287231 597.582581,493.915558 589.805176,499.433594 
	C584.443054,503.238037 578.687866,506.488434 572.793701,510.020264 
z"/>
<path fill="#BD9E41" opacity="1.000000" stroke="none" 
	d="
M543.001648,191.411682 
	C544.169006,187.203461 546.654968,184.932510 550.689453,185.512131 
	C554.911621,186.118713 557.085327,189.023407 556.885254,193.248917 
	C556.750854,196.088806 558.181213,196.720657 560.513733,197.484589 
	C564.124146,198.667099 567.648376,200.266663 570.981506,202.102676 
	C575.123108,204.383987 576.344177,208.623230 574.332214,212.238098 
	C572.459839,215.602127 568.813538,216.011673 564.371643,214.343567 
	C559.472778,212.503891 554.367493,210.695724 549.220459,210.174393 
	C543.565369,209.601593 538.680115,214.209869 538.242126,219.025253 
	C537.811646,223.758087 541.418518,227.757462 547.223938,229.324585 
	C553.082947,230.906189 559.585632,231.555222 564.581055,234.613953 
	C580.023438,244.069611 578.737549,266.247070 562.641052,274.602783 
	C559.265198,276.355225 556.609009,277.603363 556.615417,282.379730 
	C556.620483,286.140167 553.380798,288.359406 549.194397,288.071869 
	C545.216675,287.798676 542.795532,285.610992 543.087830,281.714111 
	C543.371948,277.926178 541.450012,277.069946 538.464294,276.092804 
	C534.860168,274.913239 531.318787,273.294647 528.071045,271.334503 
	C523.839355,268.780487 522.985107,265.185577 525.156677,261.633942 
	C527.299866,258.128662 530.710449,257.541901 535.116028,259.433533 
	C539.062256,261.127960 543.087769,262.902588 547.259399,263.751038 
	C555.245422,265.375244 561.839478,259.767242 561.086548,252.540115 
	C560.561523,247.500168 556.752319,244.538834 549.904175,244.000565 
	C542.722290,243.436066 536.372192,241.282867 531.174927,235.901855 
	C519.700867,224.022110 523.372437,204.711349 538.743530,198.401230 
	C542.222107,196.973190 543.409180,195.202179 543.001648,191.411682 
z"/>
</svg>