<?xml version="1.0" encoding="UTF-8"?>
<svg version="1.1" xmlns="http://www.w3.org/2000/svg" width="1080" height="1080">
<path d="M0 0 C356.4 0 712.8 0 1080 0 C1080 356.4 1080 712.8 1080 1080 C723.6 1080 367.2 1080 0 1080 C0 723.6 0 367.2 0 0 Z " fill="#FEFEFE" transform="translate(0,0)"/>
<path d="M0 0 C0 30.69 0 61.38 0 93 C21.45 93 42.9 93 65 93 C64.98839844 87.66972656 64.97679687 82.33945312 64.96484375 76.84765625 C64.95973692 73.4798165 64.95492314 70.11198149 64.95117188 66.74414062 C64.94518371 61.39330052 64.93808412 56.04247745 64.92456055 50.69165039 C64.91373071 46.37988027 64.90772296 42.06812841 64.90512276 37.75634575 C64.90326868 36.10763702 64.8996484 34.45892934 64.89426994 32.81022835 C64.88705822 30.50896128 64.88600911 28.2077706 64.88647461 25.90649414 C64.884254 24.5941127 64.88203339 23.28173126 64.87974548 21.92958069 C65 19 65 19 66 18 C67.49870048 17.90168854 69.00198539 17.87201544 70.50390625 17.87060547 C71.94044556 17.86587723 71.94044556 17.86587723 73.40600586 17.86105347 C74.44764893 17.8630777 75.48929199 17.86510193 76.5625 17.8671875 C77.62412354 17.86623077 78.68574707 17.86527405 79.77954102 17.86428833 C82.02913472 17.86360636 84.27873037 17.86546181 86.52832031 17.86962891 C89.98507071 17.8749769 93.44169117 17.86968446 96.8984375 17.86328125 C99.07812529 17.86394203 101.257813 17.86522318 103.4375 17.8671875 C104.9999646 17.86415115 104.9999646 17.86415115 106.59399414 17.86105347 C107.55168701 17.86420563 108.50937988 17.86735779 109.49609375 17.87060547 C110.34357178 17.87140106 111.1910498 17.87219666 112.06420898 17.87301636 C114 18 114 18 115 19 C115.09443335 21.30053835 115.11742128 23.60402173 115.11352539 25.90649414 C115.11367142 26.62840439 115.11381744 27.35031464 115.1139679 28.09410095 C115.11326869 30.49114947 115.10547595 32.88812123 115.09765625 35.28515625 C115.0957921 36.94282489 115.09436818 38.60049407 115.09336853 40.25816345 C115.08954312 44.62954214 115.07971265 49.00088781 115.06866455 53.37225342 C115.05845092 57.82954461 115.05387101 62.28684111 115.04882812 66.74414062 C115.0380904 75.49611062 115.02049342 84.2480474 115 93 C120.61 93 126.22 93 132 93 C132 62.31 132 31.62 132 0 C133.98 0.99 133.98 0.99 136 2 C136.73247955 2.35001572 137.46495911 2.70003143 138.21963501 3.06065369 C141.12057238 6.22063617 140.53815959 9.95907867 140.48583984 14.02954102 C140.48963654 14.95335571 140.49343323 15.87717041 140.49734497 16.82897949 C140.50476454 19.88763193 140.48334974 22.94533801 140.4609375 26.00390625 C140.45855402 28.12474964 140.45764755 30.24559516 140.4581604 32.36643982 C140.45503008 36.81270551 140.43844549 41.25864927 140.41162109 45.70483398 C140.37762034 51.41390677 140.36999294 57.12262589 140.37151146 62.83178806 C140.37096854 67.21115008 140.36001429 71.59043425 140.34550858 75.96977043 C140.33912931 78.07538196 140.33519905 80.18100233 140.33372116 82.286623 C140.3294013 85.22452054 140.31192933 88.16203732 140.29052734 91.09985352 C140.29143372 91.97626999 140.29234009 92.85268646 140.29327393 93.75566101 C140.22895492 99.77104508 140.22895492 99.77104508 138 102 C135.5105896 102.25168228 135.5105896 102.25168228 132.30615234 102.25396729 C130.48890656 102.26242676 130.48890656 102.26242676 128.63494873 102.27105713 C127.28527773 102.26716818 125.93560731 102.26307182 124.5859375 102.25878906 C123.17018453 102.26149793 121.75443296 102.26505827 120.33868408 102.26940918 C116.48751641 102.27854793 112.63645556 102.27498285 108.78528595 102.26865101 C104.76098842 102.26359868 100.73670022 102.26828032 96.71240234 102.27142334 C89.95343376 102.27506523 83.19450884 102.27025806 76.43554688 102.26074219 C68.61363666 102.2498572 60.7918307 102.25338262 52.96992302 102.264395 C46.26246687 102.27346154 39.55504216 102.27475626 32.84758186 102.26951766 C28.83788468 102.26639446 24.82823654 102.26599816 20.81854248 102.27259064 C17.04945733 102.2783543 13.280507 102.27438531 9.51143646 102.26280212 C8.12547785 102.26015027 6.73950795 102.26092955 5.35355377 102.26532745 C3.4669891 102.27076341 1.58039972 102.26274939 -0.30615234 102.25396729 C-1.36361664 102.25321323 -2.42108093 102.25245918 -3.5105896 102.25168228 C-6 102 -6 102 -8 100 C-8.21991521 97.01431172 -8.31461493 94.11996307 -8.32226562 91.1315918 C-8.33219543 90.212742 -8.34212524 89.29389221 -8.35235596 88.34719849 C-8.38164142 85.29784177 -8.3952103 82.24869317 -8.40625 79.19921875 C-8.41775008 77.08413179 -8.42926558 74.96904492 -8.4407959 72.85395813 C-8.4618283 68.41442897 -8.47350524 63.97497238 -8.48046875 59.53540039 C-8.49143699 53.84532038 -8.53948177 48.15619794 -8.59641266 42.46641827 C-8.63365531 38.09551695 -8.64407602 33.72484641 -8.6471405 29.35379982 C-8.65319778 27.2561908 -8.66926944 25.15858605 -8.69551086 23.06113243 C-8.72961407 20.12554472 -8.72587976 17.19229707 -8.71289062 14.2565918 C-8.73132019 13.38939011 -8.74974976 12.52218842 -8.76873779 11.62870789 C-8.68906172 5.88223356 -8.68906172 5.88223356 -6.68681335 3.31867409 C-2.87134457 0 -2.87134457 0 0 0 Z " fill="#077175" transform="translate(469,486)"/>
<path d="M0 0 C11.88 0 23.76 0 36 0 C36 22.11 36 44.22 36 67 C24.12 67 12.24 67 0 67 C0 44.89 0 22.78 0 0 Z " fill="#FEFEFE" transform="translate(541,511)"/>
<path d="M0 0 C3.42673696 1.52739084 6.05841282 3.54331171 8.9375 5.9375 C9.91074219 6.74574219 10.88398437 7.55398438 11.88671875 8.38671875 C12.92491922 9.25728798 13.96267486 10.12838796 15 11 C15.50740723 11.42490723 16.01481445 11.84981445 16.53759766 12.28759766 C23.55658337 18.17040863 30.49066089 24.14829721 37.40429688 30.15429688 C45.30069437 37.00762019 53.25461162 43.78766429 61.375 50.375 C65.72555512 53.91336755 69.96584525 57.5603535 74.1875 61.25 C80.30956903 66.59977331 86.55922205 71.77053236 92.8972168 76.86230469 C93.85494995 77.6323584 93.85494995 77.6323584 94.83203125 78.41796875 C95.39639893 78.86938232 95.9607666 79.3207959 96.54223633 79.78588867 C98 81 98 81 100 83 C99.44444444 87.55555556 99.44444444 87.55555556 98 89 C94.21892878 89.46926276 92.5310598 89.38137578 89.39453125 87.12890625 C88.54246094 86.28199219 87.69039062 85.43507813 86.8125 84.5625 C85.8473361 83.63044155 84.87982928 82.70080396 83.91015625 81.7734375 C83.42434082 81.30389648 82.93852539 80.83435547 82.43798828 80.35058594 C80.3019461 78.3443745 78.03555743 76.52003338 75.75 74.6875 C71.29366003 71.08814849 66.94392954 67.3866306 62.625 63.625 C56.32571905 58.13999305 49.97604119 52.72004824 43.58837891 47.33837891 C35.78344108 40.76188503 28.00456694 34.156288 20.26147461 27.50708008 C14.20102411 22.30644907 8.10326342 17.15026215 2 12 C-6.5831555 15.81251791 -13.61912569 23.51113485 -20.48828125 29.765625 C-23.00151232 32.00134533 -25.57311479 34.13377682 -28.1875 36.25 C-32.66214181 39.87262962 -37.03394896 43.59474403 -41.375 47.375 C-47.67433237 52.85994883 -54.0239578 58.27995091 -60.41162109 63.66162109 C-67.88109327 69.95544933 -75.331687 76.27092557 -82.75 82.625 C-83.6635022 83.40701782 -83.6635022 83.40701782 -84.59545898 84.20483398 C-87.35984437 86.53431678 -87.35984437 86.53431678 -90 89 C-92.9375 89.1875 -92.9375 89.1875 -96 89 C-96.66 88.34 -97.32 87.68 -98 87 C-98 84.6875 -98 84.6875 -97 82 C-95.04978784 80.15243059 -93.13795872 78.60876102 -91 77 C-89.34818167 75.67408849 -87.70305265 74.33982541 -86.0625 73 C-85.11503906 72.2265625 -84.16757812 71.453125 -83.19140625 70.65625 C-78.90780004 67.11791282 -74.73633061 63.45003776 -70.54907227 59.79882812 C-66.91392959 56.63647079 -63.24546574 53.5320437 -59.5 50.5 C-53.16800484 45.36873873 -47.04710553 40.00143725 -40.90087891 34.65087891 C-27.40952606 22.93388328 -13.74533878 11.41729942 0 0 Z " fill="#097276" transform="translate(534,408)"/>
<path d="M0 0 C0.88022827 0.00718552 1.76045654 0.01437103 2.6673584 0.02177429 C3.569823 0.02223251 4.4722876 0.02269073 5.40209961 0.02316284 C7.31198439 0.02618664 9.22186666 0.03407674 11.13171387 0.0464325 C14.06165262 0.06466863 16.99127512 0.06694234 19.92126465 0.06669617 C21.77413198 0.07161208 23.62699715 0.07744071 25.4798584 0.08427429 C26.36008667 0.08538712 27.24031494 0.08649994 28.1472168 0.08764648 C34.3414832 0.13618044 34.3414832 0.13618044 36.5736084 1.25224304 C36.59887964 7.50019979 36.61644184 13.74814346 36.62854004 19.99613953 C36.63358138 22.12342318 36.64041431 24.25070335 36.64904785 26.37797546 C36.66112219 29.4285213 36.66683854 32.4790215 36.67126465 35.52958679 C36.67642593 36.4868718 36.68158722 37.4441568 36.68690491 38.43045044 C36.68698044 39.31128799 36.68705597 40.19212555 36.68713379 41.09965515 C36.6893544 41.87908981 36.69157501 42.65852448 36.69386292 43.46157837 C36.5736084 45.25224304 36.5736084 45.25224304 35.5736084 46.25224304 C34.22816513 46.35009645 32.87768277 46.38022289 31.52868652 46.38163757 C30.67109741 46.38478973 29.8135083 46.38794189 28.92993164 46.39118958 C27.99765747 46.38916534 27.0653833 46.38714111 26.1048584 46.38505554 C24.67889343 46.38649063 24.67889343 46.38649063 23.22412109 46.38795471 C21.20991958 46.38863661 19.19571588 46.38678166 17.18151855 46.38261414 C14.08690485 46.37726602 10.9924363 46.38255881 7.89782715 46.38896179 C5.94600391 46.38830101 3.99418076 46.38701985 2.0423584 46.38505554 C0.64394714 46.38809189 0.64394714 46.38809189 -0.78271484 46.39118958 C-1.64030396 46.38803741 -2.49789307 46.38488525 -3.38146973 46.38163757 C-4.14012329 46.38084198 -4.89877686 46.38004639 -5.68041992 46.37922668 C-7.4263916 46.25224304 -7.4263916 46.25224304 -8.4263916 45.25224304 C-8.52940574 43.91230688 -8.56487613 42.56706339 -8.57165527 41.22319031 C-8.57803513 40.36882889 -8.58441498 39.51446747 -8.59098816 38.63421631 C-8.59210098 37.70507919 -8.59321381 36.77594208 -8.59436035 35.81864929 C-8.59768875 34.87037766 -8.60101715 33.92210602 -8.60444641 32.94509888 C-8.60951979 30.93509915 -8.61185461 28.92509096 -8.61169434 26.91508484 C-8.61387982 23.83136685 -8.63202843 20.74800698 -8.65100098 17.66435242 C-8.65393495 15.71578594 -8.65591972 13.76721775 -8.65686035 11.81864929 C-8.66404587 10.89153641 -8.67123138 9.96442352 -8.67863464 9.00921631 C-8.67555801 8.15170273 -8.67248138 7.29418915 -8.66931152 6.41069031 C-8.67073654 5.65425735 -8.67216156 4.8978244 -8.67362976 4.11846924 C-8.02116888 -0.80649697 -4.01016903 0.01515246 0 0 Z " fill="#0A7376" transform="translate(487.4263916015625,507.7477569580078)"/>
<path d="M0 0 C1.79727539 -0.00386719 1.79727539 -0.00386719 3.63085938 -0.0078125 C4.88833984 -0.00007813 6.14582031 0.00765625 7.44140625 0.015625 C9.32182617 0.00402344 9.32182617 0.00402344 11.24023438 -0.0078125 C12.43970703 -0.00523437 13.63917969 -0.00265625 14.875 0 C15.9777124 0.00225586 17.0804248 0.00451172 18.21655273 0.00683594 C21.00390625 0.265625 21.00390625 0.265625 24.00390625 2.265625 C24.34448242 5.33837891 24.34448242 5.33837891 24.296875 9.2421875 C24.29263016 9.927435 24.28838531 10.6126825 24.28401184 11.31869507 C24.26720378 13.50973629 24.2295503 15.69986132 24.19140625 17.890625 C24.17636204 19.37498673 24.16267318 20.85936285 24.15039062 22.34375 C24.11729415 25.98467333 24.06549832 29.62505978 24.00390625 33.265625 C23.38999023 32.95665283 22.77607422 32.64768066 22.14355469 32.3293457 C20.69747022 31.61042854 19.23874117 30.91648499 17.76953125 30.24609375 C14.78174237 26.89474649 15.59005697 22.88547037 15.75390625 18.578125 C15.77195312 17.68544922 15.79 16.79277344 15.80859375 15.87304688 C15.85571529 13.67011482 15.92745886 11.46773442 16.00390625 9.265625 C10.72390625 9.265625 5.44390625 9.265625 0.00390625 9.265625 C0.00390625 10.915625 0.00390625 12.565625 0.00390625 14.265625 C-6.13289762 12.10945067 -6.13289762 12.10945067 -7.99609375 9.265625 C-8.30859375 5.703125 -8.30859375 5.703125 -7.99609375 2.265625 C-5.27957009 -0.45089866 -3.79522283 0.00777198 0 0 Z " fill="#087175" transform="translate(574.99609375,414.734375)"/>
<path d="M0 0 C4.29 0 8.58 0 13 0 C13 4.29 13 8.58 13 13 C8.71 13 4.42 13 0 13 C0 8.71 0 4.42 0 0 Z " fill="#EAF3F3" transform="translate(505,515)"/>
<path d="M0 0 C4.29 0 8.58 0 13 0 C13 4.29 13 8.58 13 13 C8.71 13 4.42 13 0 13 C0 8.71 0 4.42 0 0 Z " fill="#E9F2F2" transform="translate(485,515)"/>
<path d="M0 0 C3.96 0 7.92 0 12 0 C12 3.96 12 7.92 12 12 C8.04 12 4.08 12 0 12 C0 8.04 0 4.08 0 0 Z " fill="#FDFEFE" transform="translate(505,535)"/>
<path d="M0 0 C3.96 0 7.92 0 12 0 C12 3.96 12 7.92 12 12 C8.04 12 4.08 12 0 12 C0 8.04 0 4.08 0 0 Z " fill="#FBFDFD" transform="translate(486,535)"/>
</svg>
