<?xml version="1.0" encoding="UTF-8"?>
<svg version="1.1" xmlns="http://www.w3.org/2000/svg" width="1080" height="1080">
<path d="M0 0 C356.4 0 712.8 0 1080 0 C1080 356.4 1080 712.8 1080 1080 C723.6 1080 367.2 1080 0 1080 C0 723.6 0 367.2 0 0 Z " fill="#FEFEFE" transform="translate(0,0)"/>
<path d="M0 0 C2.90819279 2.51816173 5.87569299 4.93924532 8.875 7.34765625 C12.54331192 10.33114583 15.94629613 13.41075063 19.22070312 16.81811523 C20.98288443 18.58053833 22.80806895 20.20558659 24.69921875 21.828125 C28.95850492 25.52871228 33.04314007 29.39122023 37.125 33.28515625 C44.54822014 40.31084876 52.12590797 47.08230906 60 53.59765625 C60.89235352 54.33943115 60.89235352 54.33943115 61.80273438 55.09619141 C75.2995645 66.26585821 89.44724455 76.46554849 105 84.59765625 C106.02504639 85.13471191 106.02504639 85.13471191 107.07080078 85.68261719 C132.69605743 98.89931185 174.70077958 115.49195784 204 110.59765625 C208.89445874 108.81587913 213.39694083 106.18994549 217.94726562 103.68359375 C221.23731338 101.94309275 224.63871863 100.48976375 228.0625 99.03515625 C233.01990998 96.90561499 237.93340751 94.71602873 242.8125 92.41015625 C269.97172933 79.63741665 297.2929114 68.37993957 326 59.59765625 C327.21840576 59.21867188 327.21840576 59.21867188 328.46142578 58.83203125 C350.3868695 52.01435927 372.99619742 47.17443358 396 46.59765625 C396.85110352 46.57574219 397.70220703 46.55382812 398.57910156 46.53125 C428.87414425 45.87622205 459.02136068 50.30466102 486.12084961 64.72631836 C488.83831893 65.98637397 490.18722901 65.56191457 493 64.59765625 C495.84136637 62.71743819 495.84136637 62.71743819 498.75 60.28515625 C499.90673797 59.36841719 501.065703 58.45448312 502.2265625 57.54296875 C502.83918945 57.06118164 503.45181641 56.57939453 504.08300781 56.08300781 C525.6060428 39.40621912 548.57524316 26.49176333 575 19.59765625 C575.69013184 19.41541504 576.38026367 19.23317383 577.09130859 19.04541016 C625.98062152 6.75275079 670.66349885 26.92961964 712 50.59765625 C715.35412032 52.60879066 718.65511745 54.69882369 721.95092773 56.80371094 C729.98762721 61.91472956 738.27596908 66.58708085 746.58300781 71.24169922 C748.0720423 72.07706261 749.55887463 72.91638317 751.04199219 73.76220703 C776.0258919 88.00210989 804.06577489 96.32942952 832 102.59765625 C832.825 102.7874707 833.65 102.97728516 834.5 103.17285156 C842.99784156 105.02203888 849.02525886 105.81421936 856.75 100.97265625 C857.97889023 100.22526294 859.20938487 99.48050177 860.44140625 98.73828125 C861.04484863 98.37025391 861.64829102 98.00222656 862.27001953 97.62304688 C864.68216505 96.19332472 867.16830387 94.95222182 869.6875 93.72265625 C873.24969593 91.98166248 876.77655154 90.19547491 880.26953125 88.3203125 C888.67539597 83.80866528 897.12697974 79.48713216 905.8125 75.53515625 C906.64201172 75.15319092 907.47152344 74.77122559 908.32617188 74.37768555 C909.11185547 74.02617432 909.89753906 73.67466309 910.70703125 73.3125 C911.3925708 73.0043335 912.07811035 72.69616699 912.78442383 72.37866211 C915 71.59765625 915 71.59765625 921 70.59765625 C921 141.87765625 921 213.15765625 921 286.59765625 C564.6 286.59765625 208.2 286.59765625 -159 286.59765625 C-159 181.98765625 -159 77.37765625 -159 -30.40234375 C-142.44095565 -36.31628816 -142.44095565 -36.31628816 -135.1875 -38.08984375 C-133.9193042 -38.4005481 -133.9193042 -38.4005481 -132.62548828 -38.7175293 C-82.65626198 -50.5006043 -37.76962008 -32.90883419 0 0 Z " fill="#58C9E0" transform="translate(159,793.40234375)"/>
<path d="M0 0 C1.16184814 0.01305176 1.16184814 0.01305176 2.34716797 0.02636719 C21.52290228 0.28665097 40.91198377 4.57298019 59.20214844 10.15136719 C61.99809714 10.99942283 64.7997864 11.82674827 67.60284424 12.6509552 C83.41012249 17.3048836 99.00976309 22.25413049 114.44140625 28.04980469 C122.90351859 31.19241358 131.4587902 34.08130567 140 37 C141.36897789 37.46956373 142.73795575 37.93912754 144.10693359 38.40869141 C170.0074119 47.27728567 195.88857284 55.67862331 223 60 C223.69802734 60.11714355 224.39605469 60.23428711 225.11523438 60.35498047 C257.86947977 65.66925413 291.69603657 60.86136524 324.203125 56.23828125 C341.4151754 53.79313003 358.60676729 51.50330068 376 51 C377.92392578 50.938125 377.92392578 50.938125 379.88671875 50.875 C403.94825445 50.4857335 426.85021856 54.56950516 450 61 C450 88.06 450 115.12 450 143 C93.6 143 -262.8 143 -630 143 C-630 102.41 -630 61.82 -630 20 C-607.18069283 16.57710392 -607.18069283 16.57710392 -596.6875 15.4375 C-589.84261455 14.67319512 -583.00820023 13.89479126 -576.1875 12.9375 C-557.14269186 10.38262129 -538.33761726 9.5975473 -519.125 9.625 C-517.82284546 9.62487915 -516.52069092 9.6247583 -515.17907715 9.62463379 C-495.74791426 9.65030559 -477.12887021 10.49945006 -458 14 C-455.94202715 14.34229581 -453.88343646 14.68089957 -451.82421875 15.015625 C-447.12338407 15.79230804 -442.43631645 16.62816598 -437.75146484 17.49560547 C-434.8643032 18.02487574 -431.97384597 18.53196439 -429.08203125 19.03515625 C-427.13797581 19.37734846 -425.19396389 19.71978808 -423.25 20.0625 C-422.38109131 20.21267578 -421.51218262 20.36285156 -420.61694336 20.51757812 C-415.34939877 21.46177498 -410.25855442 22.72550197 -405.10839844 24.17211914 C-398.62662071 25.89845501 -392.05216042 27.25666172 -385.5 28.6875 C-382.26130122 29.39784951 -379.02308497 30.11036769 -375.78515625 30.82421875 C-374.96471329 31.00499969 -374.14427032 31.18578064 -373.29896545 31.37203979 C-367.98011857 32.54875754 -362.67258281 33.767082 -357.37109375 35.01953125 C-316.26202583 44.70828274 -274.70547945 53.25192339 -232.3125 53.1875 C-231.56987915 53.18689575 -230.8272583 53.1862915 -230.06213379 53.18566895 C-218.27316347 53.15974522 -206.67093653 52.75850173 -195 51 C-193.71971924 50.8146167 -193.71971924 50.8146167 -192.41357422 50.62548828 C-177.82368403 48.44769573 -164.00315589 44.5744208 -150 40 C-148.78183594 39.61585938 -147.56367188 39.23171875 -146.30859375 38.8359375 C-141.70992755 37.36100675 -137.23041353 35.7181918 -132.78125 33.83984375 C-89.09218035 15.51980811 -48.11303635 -0.96177169 0 0 Z " fill="#01BBD7" transform="translate(630,937)"/>
<path d="M0 0 C2.90819279 2.51816173 5.87569299 4.93924532 8.875 7.34765625 C12.54331192 10.33114583 15.94629613 13.41075063 19.22070312 16.81811523 C20.98288443 18.58053833 22.80806895 20.20558659 24.69921875 21.828125 C28.95850492 25.52871228 33.04314007 29.39122023 37.125 33.28515625 C44.54822014 40.31084876 52.12590797 47.08230906 60 53.59765625 C60.89235352 54.33943115 60.89235352 54.33943115 61.80273438 55.09619141 C75.2995645 66.26585821 89.44724455 76.46554849 105 84.59765625 C106.02504639 85.13471191 106.02504639 85.13471191 107.07080078 85.68261719 C136.43304793 100.82673303 169.25795487 108.48267231 202 111.59765625 C199.47310952 113.2822499 197.10520988 114.57681 194.37890625 115.8828125 C193.45432617 116.32625 192.52974609 116.7696875 191.57714844 117.2265625 C190.58231445 117.69964844 189.58748047 118.17273438 188.5625 118.66015625 C187.52770508 119.15257812 186.49291016 119.645 185.42675781 120.15234375 C162.4755979 131.03393503 139.15266389 141.64640799 115 149.59765625 C113.7728125 150.00242187 112.545625 150.4071875 111.28125 150.82421875 C97.75580479 155.20207673 84.01148972 158.81187433 70.125 161.84765625 C69.40143311 162.01080322 68.67786621 162.1739502 67.93237305 162.34204102 C56.76170875 164.69857837 46.77179366 164.8458899 35.625 162.41015625 C25.21947955 160.30439138 14.84152003 158.65549486 4.3125 157.34765625 C2.35401123 157.10366089 2.35401123 157.10366089 0.35595703 156.85473633 C-1.98719649 156.56661863 -4.33065779 156.280981 -6.67456055 155.99902344 C-9.00648997 155.71756892 -11.33458806 155.40334978 -13.65893555 155.06494141 C-19.11425991 154.38652375 -24.57940566 154.37767207 -30.0703125 154.32421875 C-31.24455276 154.31182663 -32.41879303 154.29943451 -33.62861633 154.28666687 C-37.46077339 154.25418257 -41.29272773 154.23541889 -45.125 154.22265625 C-46.43445587 154.21809418 -47.74391174 154.2135321 -49.0930481 154.20883179 C-75.69047631 154.15528775 -101.87596745 156.27136774 -128.15673828 160.39990234 C-129.44633202 160.60077705 -129.44633202 160.60077705 -130.76197815 160.80570984 C-132.35247773 161.05622273 -133.94197019 161.31330165 -135.52989197 161.57966614 C-143.4008439 162.83093967 -150.90731793 163.09186362 -159 163.59765625 C-159 99.57765625 -159 35.55765625 -159 -30.40234375 C-142.44095565 -36.31628816 -142.44095565 -36.31628816 -135.1875 -38.08984375 C-133.9193042 -38.4005481 -133.9193042 -38.4005481 -132.62548828 -38.7175293 C-82.65626198 -50.5006043 -37.76962008 -32.90883419 0 0 Z " fill="#91D7E8" transform="translate(159,793.40234375)"/>
<path d="M0 0 C2.12696912 0.22630885 4.2561926 0.43125712 6.38574219 0.63183594 C29.94200916 3.22567208 53.94328592 10.46699166 75.48730469 20.26464844 C76.14279297 20.55500977 76.79828125 20.84537109 77.47363281 21.14453125 C99.26808685 30.83420139 119.00094588 43.60265307 138.48730469 57.26464844 C139.29135742 57.82635742 140.09541016 58.38806641 140.92382812 58.96679688 C149.51343685 64.97198509 158.03962088 71.06116573 166.48730469 77.26464844 C162.28730686 80.68830656 157.93119 83.84754263 153.50512695 86.96704102 C149.87329102 89.53615091 146.29091925 92.15582112 142.74511719 94.84277344 C141.94485107 95.44162354 141.14458496 96.04047363 140.32006836 96.6574707 C138.74350581 97.83872759 137.17563182 99.0316853 135.61743164 100.23706055 C134.53014771 101.04542358 134.53014771 101.04542358 133.42089844 101.87011719 C132.7820874 102.35633545 132.14327637 102.84255371 131.48510742 103.34350586 C128.76103941 104.59951327 127.3229924 104.11639951 124.48730469 103.26464844 C123.06332619 102.73809269 121.65477377 102.16796732 120.26464844 101.55761719 C119.47767578 101.21794922 118.69070313 100.87828125 117.87988281 100.52832031 C116.27040953 99.82281532 114.66103111 99.11709386 113.05175781 98.41113281 C102.60923924 93.90436164 92.15133562 90.73367864 80.98730469 88.57714844 C79.94960938 88.36509766 78.91191406 88.15304687 77.84277344 87.93457031 C63.41416987 85.08658318 49.13226676 85.03510358 34.48730469 85.26464844 C33.75914551 85.27189941 33.03098633 85.27915039 32.28076172 85.28662109 C12.6258365 85.56856629 -7.37974598 89.74227023 -26.11523438 95.53271484 C-28.7994429 96.35219113 -31.49492698 97.12664214 -34.19238281 97.90136719 C-59.42978808 105.26592715 -83.76206564 114.96406607 -107.76269531 125.63964844 C-108.87774445 126.13537354 -108.87774445 126.13537354 -110.01531982 126.64111328 C-118.57323208 130.45954808 -127.00375217 134.46650102 -135.36474609 138.69775391 C-139.62636278 140.81897741 -143.95645026 142.75149441 -148.32519531 144.63964844 C-153.26360846 146.44475004 -153.26360846 146.44475004 -157.51269531 149.26464844 C-169.30657162 150.56091232 -181.04277753 147.6655583 -192.51269531 145.26464844 C-193.82898926 144.99177002 -193.82898926 144.99177002 -195.171875 144.71337891 C-241.07707146 135.00299803 -282.69164068 113.0557835 -315.51269531 79.26464844 C-314.78050781 79.12929688 -314.04832031 78.99394531 -313.29394531 78.85449219 C-302.17759375 76.64445563 -291.41633133 73.39188323 -280.5625 70.16113281 C-276.78665097 69.05122906 -272.9974183 67.99353781 -269.20629883 66.93725586 C-261.15352551 64.68738108 -253.24398568 62.21945148 -245.3840332 59.3671875 C-241.45452557 57.94132561 -237.52541504 56.63141846 -233.51269531 55.45214844 C-222.69101699 52.19883885 -212.11920358 48.15034346 -201.51269531 44.26464844 C-200.77148438 43.99394531 -200.03027344 43.72324219 -199.26660156 43.44433594 C-182.37734164 37.25953653 -165.6706712 30.55297512 -148.98364258 23.84545898 C-138.03084972 19.44302099 -127.14401732 15.34788781 -115.78735352 12.10180664 C-112.25899391 11.09125907 -108.78106036 10.01861248 -105.31738281 8.80371094 C-99.40882337 6.81194025 -93.34796412 5.53138872 -87.26269531 4.20214844 C-86.12445313 3.94626953 -84.98621094 3.69039062 -83.81347656 3.42675781 C-56.09590854 -2.69250096 -28.15800388 -2.99853967 0 0 Z " fill="#CFECF4" transform="translate(520.5126953125,755.7353515625)"/>
<path d="M0 0 C8.03669948 5.11101862 16.32504134 9.78336991 24.63208008 14.43798828 C26.12111457 15.27335167 27.60794689 16.11267223 29.09106445 16.95849609 C58.65418568 33.8083866 92.68026809 43.06159487 126.04907227 48.79394531 C113.90396451 58.4454923 97.94357464 64.0898616 83.95532227 70.46191406 C81.61342345 71.53528435 79.28035019 72.62221324 76.95532227 73.73144531 C46.49271147 88.26406698 13.63388394 102.36971992 -19.79467773 108.18847656 C-23.2542583 108.85213373 -26.5667467 109.82046628 -29.95092773 110.79394531 C-31.8395074 111.1849503 -33.73582299 111.5406713 -35.63842773 111.85644531 C-36.54979492 112.01242187 -37.46116211 112.16839844 -38.40014648 112.32910156 C-48.1563801 113.60632026 -57.87185724 113.98041563 -67.70410156 113.97924805 C-69.75078243 113.98143182 -71.7969197 113.99966614 -73.84350586 114.01855469 C-102.24600387 114.14097649 -130.33526868 106.05529553 -150.92749023 85.86035156 C-158.12355388 78.61661683 -164.6608036 71.00578671 -170.90087891 62.9375 C-175.6285618 56.8495449 -180.61995661 50.96904777 -186.20483398 45.64550781 C-187.95092773 43.79394531 -187.95092773 43.79394531 -187.95092773 41.79394531 C-188.51424805 41.55417969 -189.07756836 41.31441406 -189.65795898 41.06738281 C-192.43351921 39.52593028 -194.35853732 37.63083271 -196.63842773 35.41894531 C-206.09554767 26.67174322 -216.90973899 19.29497717 -228.06811523 12.87988281 C-229.73599371 11.91791141 -231.34888893 10.86197118 -232.95092773 9.79394531 C-232.40275391 9.43695557 -231.85458008 9.07996582 -231.28979492 8.7121582 C-226.56281002 5.60195521 -221.9809112 2.36603641 -217.47192383 -1.05126953 C-195.72971093 -17.49232796 -173.4624814 -30.46193551 -146.95092773 -37.20605469 C-146.26659668 -37.38539551 -145.58226562 -37.56473633 -144.87719727 -37.74951172 C-92.84739293 -50.84474115 -42.77564634 -27.31890018 0 0 Z " fill="#91D7E8" transform="translate(880.950927734375,850.2060546875)"/>
<path d="M0 0 C0 30.03 0 60.06 0 91 C-6.6 93.64 -13.2 96.28 -20 99 C-23.51594101 100.61912143 -26.94803664 102.22615789 -30.375 104 C-31.19967773 104.41878418 -32.02435547 104.83756836 -32.87402344 105.26904297 C-38.87198244 108.3427343 -44.71063497 111.63891153 -50.52734375 115.04296875 C-55.2433433 117.70069178 -60.07356796 120.09951596 -64.93652344 122.47509766 C-68.18589068 123.91082081 -68.18589068 123.91082081 -71 126 C-78.68680225 126.62478935 -85.8227131 124.67480079 -93.25 122.875 C-93.91440094 122.71660645 -94.57880188 122.55821289 -95.26333618 122.39501953 C-118.39308317 116.87813163 -140.89014947 110.08325857 -162 99 C-164.95232886 97.50874872 -167.9136803 96.03579827 -170.875 94.5625 C-172.24755172 93.87661394 -173.61996194 93.19044461 -174.9921875 92.50390625 C-175.98476563 92.00761719 -176.97734375 91.51132812 -178 91 C-175.16514528 88.71085481 -172.18450301 86.96416117 -168.97583008 85.24829102 C-153.91768394 77.1638174 -140.24362978 66.88794342 -126.79541016 56.39599609 C-88.5408413 26.65169031 -49.95125501 0 0 0 Z " fill="#CFECF4" transform="translate(1080,773)"/>
<path d="M0 0 C356.4 0 712.8 0 1080 0 C1080 1.65 1080 3.3 1080 5 C723.6 5 367.2 5 0 5 C0 3.35 0 1.7 0 0 Z " fill="#FFFFFF" transform="translate(0,1075)"/>
<path d="M0 0 C28.17437114 11.26974846 28.17437114 11.26974846 37.8125 15.6875 C53.10231908 22.57592972 68.55718569 29.05326076 84.08105469 35.39404297 C87.35722911 36.73274036 90.62019469 38.10123294 93.8828125 39.47265625 C104.30561821 43.72648503 113.74736651 45.09410805 125 45 C125 45.33 125 45.66 125 46 C123.40744385 46.00616333 123.40744385 46.00616333 121.78271484 46.01245117 C100.25820111 46.13583691 78.96167347 46.96391002 57.5625 49.375 C56.62388123 49.48000824 55.68526245 49.58501648 54.71820068 49.69320679 C44.24766424 50.8803823 33.81153907 52.22284044 23.41957092 53.97885132 C15.56260808 55.23984866 8.08746809 55.49453324 0 56 C0 37.52 0 19.04 0 0 Z " fill="#57C8E0" transform="translate(0,901)"/>
</svg>
